<svg width="65" height="47" viewBox="0 0 65 47" fill="none" xmlns="http://www.w3.org/2000/svg">
<g filter="url(#filter0_b_75_255)">
<path d="M14.5874 3.49767C16.0772 1.3095 18.553 0 21.2001 0H32.9687H44.7373C47.3845 0 49.8603 1.30951 51.3501 3.49767L61.9033 18.9977C63.7529 21.7143 63.7529 25.2857 61.9033 28.0023L51.3501 43.5023C49.8603 45.6905 47.3845 47 44.7373 47H32.9687H21.2001C18.553 47 16.0772 45.6905 14.5873 43.5023L4.03416 28.0023C2.18455 25.2857 2.18456 21.7143 4.03416 18.9977L14.5874 3.49767Z" fill="#F8F8F9"/>
</g>
<path d="M31.04 16.6458L38.1111 23.5695L31.04 30.4933L29.6258 29.1085L35.2827 23.5695L29.6258 18.0305L31.04 16.6458Z" fill="#040C42"/>
<defs>
<filter id="filter0_b_75_255" x="-9.35303" y="-12" width="84.6436" height="71" filterUnits="userSpaceOnUse" color-interpolation-filters="sRGB">
<feFlood flood-opacity="0" result="BackgroundImageFix"/>
<feGaussianBlur in="BackgroundImageFix" stdDeviation="6"/>
<feComposite in2="SourceAlpha" operator="in" result="effect1_backgroundBlur_75_255"/>
<feBlend mode="normal" in="SourceGraphic" in2="effect1_backgroundBlur_75_255" result="shape"/>
</filter>
</defs>
</svg>
