<svg width="32" height="32" viewBox="0 0 32 32" fill="none" xmlns="http://www.w3.org/2000/svg">
<path d="M30.6665 5.33301V13.333H22.6665" stroke="#1E85FF" stroke-width="2" stroke-linecap="round" stroke-linejoin="round"/>
<path d="M1.3335 26.667V18.667H9.3335" stroke="#1E85FF" stroke-width="2" stroke-linecap="round" stroke-linejoin="round"/>
<path d="M4.68016 11.9998C5.35639 10.0888 6.50567 8.38031 8.02079 7.03367C9.5359 5.68702 11.3675 4.74613 13.3445 4.29879C15.3216 3.85144 17.3798 3.91223 19.3271 4.47547C21.2743 5.03872 23.0472 6.08606 24.4802 7.51978L30.6668 13.3331M1.3335 18.6664L7.52016 24.4798C8.95316 25.9135 10.726 26.9608 12.6732 27.5241C14.6205 28.0873 16.6787 28.1481 18.6558 27.7008C20.6329 27.2534 22.4644 26.3125 23.9795 24.9659C25.4947 23.6192 26.6439 21.9107 27.3202 19.9998" stroke="#1E85FF" stroke-width="2" stroke-linecap="round" stroke-linejoin="round"/>
</svg>
