<svg width="42" height="30" viewBox="0 0 42 30" fill="none" xmlns="http://www.w3.org/2000/svg">
<g filter="url(#filter0_b_9201_49989)">
<path d="M9.87314 1.74883C10.618 0.654751 11.8559 0 13.1795 0H21.2766H29.3737C30.6973 0 31.9351 0.654754 32.6801 1.74884L40.1694 12.7488C41.0942 14.1071 41.0942 15.8929 40.1694 17.2512L32.6801 28.2512C31.9351 29.3452 30.6973 30 29.3737 30H21.2766H13.1795C11.8559 30 10.618 29.3452 9.87314 28.2512L2.38378 17.2512C1.45898 15.8929 1.45898 14.1071 2.38378 12.7488L9.87314 1.74883Z" fill="white"/>
</g>
<path d="M20.0454 10.625L24.5589 15.0444L20.0454 19.4638L19.1427 18.58L22.7535 15.0444L19.1427 11.5089L20.0454 10.625Z" fill="#040C42"/>
<defs>
<filter id="filter0_b_9201_49989" x="-10.3098" y="-12" width="63.1729" height="54" filterUnits="userSpaceOnUse" color-interpolation-filters="sRGB">
<feFlood flood-opacity="0" result="BackgroundImageFix"/>
<feGaussianBlur in="BackgroundImageFix" stdDeviation="6"/>
<feComposite in2="SourceAlpha" operator="in" result="effect1_backgroundBlur_9201_49989"/>
<feBlend mode="normal" in="SourceGraphic" in2="effect1_backgroundBlur_9201_49989" result="shape"/>
</filter>
</defs>
</svg>
