<svg width="24" height="24" viewBox="0 0 24 24" fill="none" xmlns="http://www.w3.org/2000/svg">
<path fill-rule="evenodd" clip-rule="evenodd" d="M12.0342 6.75C12.4602 6.75074 16.749 6.76561 17.8598 7.06295C18.5055 7.23435 19.0133 7.74109 19.1865 8.38943C19.4875 9.51261 19.4995 11.8033 19.5 11.9848V12.0077C19.4995 12.1898 19.4875 14.4873 19.1865 15.6105C19.0133 16.2589 18.5055 16.7656 17.8598 16.937C16.7139 17.2437 12.1862 17.2499 12.0056 17.25H11.9944C11.8138 17.2499 7.28534 17.2437 6.13873 16.937C5.49373 16.7656 4.98523 16.2589 4.81273 15.6105C4.51249 14.4873 4.50048 12.1898 4.5 12.0077V11.9848C4.50048 11.8033 4.51249 9.51261 4.81273 8.38943C4.98523 7.74109 5.49373 7.23435 6.13873 7.06295C7.25024 6.76561 11.5397 6.75074 11.9658 6.75H12.0342ZM10.4655 9.78297V14.217L14.3865 11.9962L10.4655 9.78297Z" fill="#F8F8F9"/>
</svg>
