<svg width="24" height="24" viewBox="0 0 24 24" fill="none" xmlns="http://www.w3.org/2000/svg">
<path d="M18.297 18.0004L18.3002 17.9999V13.3788C18.3002 11.1182 17.8135 9.37677 15.1707 9.37677C13.9002 9.37677 13.0476 10.074 12.6995 10.7349H12.6628V9.58782H10.1569V17.9999H12.7662V13.8345C12.7662 12.7378 12.9741 11.6773 14.3322 11.6773C15.6705 11.6773 15.6904 12.9289 15.6904 13.9049V18.0004H18.297Z" fill="white"/>
<path d="M5.90823 9.58844H8.52062V18.0005H5.90823V9.58844Z" fill="white"/>
<path d="M7.21324 5.40039C6.37797 5.40039 5.7002 6.07816 5.7002 6.91344C5.7002 7.74871 6.37797 8.44066 7.21324 8.44066C8.04852 8.44066 8.72629 7.74871 8.72629 6.91344C8.72577 6.07816 8.04799 5.40039 7.21324 5.40039Z" fill="white"/>
</svg>
