<svg width="24" height="24" viewBox="0 0 24 24" fill="none" xmlns="http://www.w3.org/2000/svg">
<path d="M9.17681 6.00001C8.75941 5.99902 8.34593 6.08049 7.9601 6.23974C7.57428 6.39899 7.22371 6.63289 6.92853 6.928C6.63335 7.22311 6.39937 7.57362 6.24003 7.95941C6.08069 8.3452 5.99912 8.75866 6.00001 9.17606V14.8232C5.99912 15.2407 6.08071 15.6542 6.2401 16.04C6.39949 16.4259 6.63354 16.7764 6.9288 17.0715C7.22405 17.3666 7.57471 17.6005 7.96062 17.7597C8.34653 17.9189 8.76009 18.0003 9.17756 17.9992H14.8239C15.2413 18.0001 15.6547 17.9186 16.0404 17.7593C16.4262 17.6 16.7766 17.3661 17.0717 17.071C17.3668 16.7759 17.6007 16.4254 17.76 16.0397C17.9193 15.6539 18.0009 15.2405 18 14.8232V9.17606C18.0009 8.75866 17.9193 8.3452 17.76 7.95941C17.6006 7.57362 17.3666 7.22311 17.0715 6.928C16.7763 6.63289 16.4257 6.39899 16.0399 6.23974C15.6541 6.08049 15.2406 5.99902 14.8232 6.00001H9.17605H9.17681ZM15.5289 7.76465C15.6216 7.76465 15.7133 7.7829 15.799 7.81837C15.8846 7.85383 15.9624 7.90581 16.0279 7.97134C16.0934 8.03687 16.1454 8.11467 16.1809 8.20029C16.2164 8.28591 16.2346 8.37768 16.2346 8.47035C16.2346 8.56303 16.2164 8.65479 16.1809 8.74041C16.1454 8.82603 16.0934 8.90383 16.0279 8.96936C15.9624 9.03489 15.8846 9.08687 15.799 9.12234C15.7133 9.1578 15.6216 9.17606 15.5289 9.17606C15.3417 9.17606 15.1622 9.10171 15.0299 8.96936C14.8975 8.83702 14.8232 8.65752 14.8232 8.47035C14.8232 8.28319 14.8975 8.10369 15.0299 7.97134C15.1622 7.839 15.3417 7.76465 15.5289 7.76465ZM11.9996 8.64659C12.8883 8.64818 13.7402 9.00198 14.3686 9.63047C14.9969 10.259 15.3505 11.1109 15.3519 11.9996C15.3503 12.8882 14.9966 13.74 14.3683 14.3683C13.74 14.9966 12.8882 15.3503 11.9996 15.3519C11.111 15.3503 10.2593 14.9966 9.63095 14.3683C9.00262 13.74 8.64892 12.8882 8.64734 11.9996C8.64892 11.111 9.00262 10.2593 9.63095 9.63095C10.2593 9.00262 11.111 8.64893 11.9996 8.64734V8.64659ZM11.9996 9.35305C11.6518 9.35226 11.3073 9.42017 10.9858 9.55288C10.6643 9.68559 10.3722 9.8805 10.1262 10.1264C9.88021 10.3723 9.68522 10.6644 9.55242 10.9858C9.41961 11.3073 9.3516 11.6518 9.35229 11.9996C9.3515 12.3475 9.41944 12.6921 9.5522 13.0137C9.68496 13.3352 9.87993 13.6274 10.1259 13.8733C10.3719 14.1193 10.6641 14.3143 10.9856 14.4471C11.3071 14.5798 11.6518 14.6477 11.9996 14.647C12.3475 14.6477 12.6921 14.5798 13.0137 14.4471C13.3352 14.3143 13.6273 14.1193 13.8733 13.8733C14.1193 13.6274 14.3143 13.3352 14.4471 13.0137C14.5798 12.6921 14.6477 12.3475 14.647 11.9996C14.6477 11.6518 14.5798 11.3071 14.4471 10.9856C14.3143 10.6641 14.1193 10.3719 13.8733 10.1259C13.6273 9.87993 13.3352 9.68496 13.0137 9.5522C12.6921 9.41944 12.3475 9.3515 11.9996 9.3523V9.35305Z" fill="white"/>
</svg>
